<svg
        xmlns="http://www.w3.org/2000/svg"
        xmlns:xlink="http://www.w3.org/1999/xlink"
        width="520px" height="507px">
    <path fill-rule="evenodd" fill="rgb(0, 0, 0)"
          d="M284.000,1.000 C406.637,-0.791 480.763,53.702 509.000,146.000 C514.216,163.051 513.795,178.860 517.000,199.000 C523.287,238.505 514.134,285.150 503.000,314.000 C467.769,405.289 399.399,465.878 302.000,495.000 C278.595,501.998 255.739,500.641 228.000,505.000 C193.302,510.453 153.028,503.144 127.000,494.000 C12.042,453.612 -39.105,291.781 34.000,167.000 C72.079,102.004 131.271,46.057 205.000,17.000 C221.332,12.667 237.668,8.333 254.000,4.000 C263.999,3.000 274.001,2.000 284.000,1.000 ZM302.000,48.000 C280.450,56.318 256.580,54.311 237.000,62.000 C168.418,88.932 108.820,138.285 80.000,205.000 C38.544,300.964 58.635,417.211 142.000,451.000 C164.689,460.196 201.266,463.965 231.000,459.000 C254.524,455.072 273.822,455.185 294.000,449.000 C370.507,425.548 422.950,373.995 446.000,297.000 C484.893,167.085 434.096,46.854 302.000,48.000 ZM268.000,107.000 C293.810,109.206 319.247,166.887 287.000,179.000 C273.267,178.290 267.181,171.150 260.000,164.000 C236.875,140.973 241.127,123.470 268.000,107.000 ZM249.000,188.000 C314.163,196.832 265.794,308.514 253.000,346.000 C247.822,361.171 246.150,395.921 222.000,391.000 C204.239,387.381 201.507,368.140 206.000,348.000 C212.411,319.264 233.635,199.627 249.000,188.000 Z"/>
</svg>
