<svg xmlns="http://www.w3.org/2000/svg" width="558.75" height="30.5" viewBox="0 0 2235 122" preserveAspectRatio="none">
  <defs>
    <style>
      .cls-1 {
        fill-rule: evenodd;
      fill: #00ff00;
      }
    </style>
  </defs>
  <path class="cls-1" d="M2235,100l-75,9-99,2-66,2c-52.96,8.136-116.6,2-173,2l-313,3-136,3-91,1c-91.55,0-179.67-5.807-255-19l-118,1-395-3H435l-78-1-66-1L153,93c-25.329-4.839-50.963-11.81-72-20C66.839,67.487,1.692,49.449,0,38L10,14C86.455-7.39,202.03,0,299,0L516,5,619,8l153,4,109,1,117,2,67-1,195-3,182-2,120-2h66c70.87,0,141.44,3.807,198,15h173l156,4,73,15Q2231.5,70.5,2235,100Z"/>
</svg>
